<?xml version="1.0" encoding="UTF-8" ?>
<!DOCTYPE svg PUBLIC "-//W3C//DTD SVG 1.1//EN" "http://www.w3.org/Graphics/SVG/1.1/DTD/svg11.dtd">
<svg width="990pt" height="540pt" viewBox="0 0 990 540" version="1.1" xmlns="http://www.w3.org/2000/svg">
<g id="#ffffffff">
<path fill="#ffffff" opacity="1.00" d=" M 0.00 0.00 L 472.56 0.00 C 467.15 25.88 471.24 53.69 484.13 76.80 C 495.22 97.00 512.78 113.55 533.61 123.41 C 557.42 134.87 585.35 137.34 610.85 130.48 C 620.62 128.00 629.83 123.80 638.66 119.01 C 641.95 132.99 651.37 144.75 662.64 153.31 C 677.22 164.39 694.08 172.51 711.88 176.84 C 722.04 179.29 732.30 181.27 742.47 183.65 C 747.83 191.41 754.06 198.59 761.24 204.73 C 769.71 211.74 774.53 221.97 782.41 229.55 C 785.72 232.67 787.91 236.71 790.80 240.19 C 790.62 241.24 790.27 243.34 790.09 244.39 C 789.83 243.92 789.32 242.98 789.07 242.51 C 786.06 243.43 783.11 244.51 780.04 245.14 C 778.74 245.33 777.54 245.95 776.77 247.01 C 775.54 251.59 779.56 255.16 780.27 259.47 C 781.41 265.36 782.91 271.18 783.81 277.12 C 784.44 282.31 784.72 287.78 787.67 292.30 C 782.92 296.08 777.75 299.88 775.33 305.69 C 771.62 305.72 767.91 305.81 764.20 305.63 C 764.00 300.85 765.22 295.76 763.15 291.25 C 764.27 288.73 765.29 286.15 765.84 283.44 C 763.99 286.02 762.79 288.96 761.49 291.83 C 760.98 291.88 759.95 291.98 759.44 292.02 C 760.01 289.30 760.41 286.54 760.57 283.77 C 757.93 285.62 758.98 289.35 758.39 292.10 C 757.69 292.12 756.29 292.16 755.59 292.18 L 755.03 291.91 C 754.23 292.06 752.64 292.37 751.84 292.53 C 751.67 296.92 751.73 301.31 751.75 305.70 C 745.72 305.67 739.70 305.69 733.68 305.68 C 733.67 307.56 733.67 309.44 733.68 311.32 C 743.57 311.33 753.47 311.25 763.37 311.37 C 763.25 316.84 763.50 322.31 762.92 327.76 C 741.46 327.80 719.99 327.64 698.53 327.83 C 698.52 329.98 698.52 332.14 698.53 334.31 C 699.49 334.31 701.43 334.31 702.40 334.31 C 702.44 361.23 702.40 388.14 702.42 415.05 C 702.45 420.05 702.04 425.13 703.20 430.05 C 564.48 430.18 425.76 430.07 287.04 430.11 C 280.25 430.17 273.45 429.92 266.67 430.35 C 205.64 394.41 151.15 347.68 105.10 293.94 C 94.47 281.46 84.07 268.73 75.06 255.01 C 48.84 215.50 28.15 172.70 3.85 132.05 C 2.64 130.00 1.30 128.03 0.00 126.04 L 0.00 0.00 Z" />
<path fill="#ffffff" opacity="1.00" d=" M 818.88 267.05 C 824.61 270.91 830.18 275.37 836.67 277.77 C 835.93 280.79 835.19 283.80 834.30 286.77 C 832.37 285.81 830.47 284.83 828.68 283.67 C 828.81 283.25 829.09 282.41 829.23 281.99 C 827.27 280.60 825.18 279.05 822.65 279.26 C 821.60 278.42 820.57 277.56 819.56 276.70 C 819.47 273.47 819.09 270.27 818.88 267.05 Z" />
<path fill="#ffffff" opacity="1.00" d=" M 960.06 296.35 C 970.44 294.62 980.28 290.79 990.00 286.90 L 990.00 430.02 C 973.01 430.27 956.03 429.96 939.04 430.17 C 936.79 430.22 934.56 429.98 932.36 429.61 C 933.36 425.82 933.11 421.88 933.10 418.01 C 933.10 387.94 933.11 357.87 933.10 327.81 C 931.75 327.83 930.41 327.86 929.08 327.90 C 928.24 322.41 928.55 316.86 928.93 311.34 C 930.23 311.32 931.54 311.30 932.87 311.29 C 932.90 309.36 932.94 307.42 932.71 305.50 C 932.45 305.47 931.95 305.40 931.70 305.37 C 931.25 304.10 930.80 302.84 930.37 301.59 C 919.94 300.51 909.47 300.72 899.03 301.30 C 892.43 301.32 885.79 300.58 879.23 301.28 C 878.77 301.57 877.84 302.14 877.37 302.43 C 876.75 302.48 875.50 302.59 874.87 302.64 C 874.87 299.04 874.88 295.43 874.90 291.83 C 875.12 291.90 875.56 292.04 875.78 292.11 C 877.84 293.01 880.12 293.03 882.34 293.22 C 883.85 293.88 885.50 294.03 887.14 294.14 C 898.49 294.66 909.55 297.96 920.97 297.73 C 934.00 298.44 947.16 298.52 960.06 296.35 Z" />
</g>
<g id="#dc3545ff">
<path fill="#dc3545" opacity="1.00" d=" M 472.56 0.00 L 990.00 0.00 L 990.00 286.90 C 980.28 290.79 970.44 294.62 960.06 296.35 C 947.16 298.52 934.00 298.44 920.97 297.73 C 909.55 297.96 898.49 294.66 887.14 294.14 C 885.50 294.03 883.85 293.88 882.34 293.22 C 880.12 293.03 877.84 293.01 875.78 292.11 C 881.75 291.68 887.74 291.94 893.73 291.90 C 897.01 279.28 900.29 266.67 903.47 254.03 C 903.05 253.59 902.20 252.71 901.78 252.28 C 882.28 252.19 862.79 252.27 843.29 252.24 C 841.02 260.73 839.01 269.30 836.67 277.77 C 830.18 275.37 824.61 270.91 818.88 267.05 C 820.56 261.37 818.77 255.60 816.76 250.28 C 813.88 247.35 809.23 247.37 806.06 244.80 C 804.22 243.33 802.35 241.92 800.45 240.55 C 800.20 239.89 799.69 238.58 799.44 237.93 C 801.29 238.10 803.16 238.29 805.03 238.50 C 806.97 236.80 809.45 235.09 809.51 232.22 C 810.05 226.84 810.50 221.45 811.30 216.10 C 811.73 212.27 809.24 208.84 806.56 206.38 C 803.79 203.81 799.82 203.92 796.30 203.89 C 794.44 201.42 791.44 200.58 788.48 201.26 C 788.65 199.91 788.81 198.57 788.98 197.22 C 786.25 196.11 782.86 195.18 780.39 197.38 C 776.31 200.87 774.84 206.86 775.67 212.03 C 776.34 214.55 778.75 214.89 780.81 213.78 C 779.88 216.88 781.76 219.82 784.71 220.81 C 785.42 223.07 785.52 225.81 787.52 227.42 C 789.81 229.17 790.76 231.94 792.52 234.13 C 792.70 234.39 793.07 234.92 793.25 235.18 C 793.52 237.07 793.17 238.97 792.74 240.81 C 792.25 240.65 791.28 240.35 790.80 240.19 C 787.91 236.71 785.72 232.67 782.41 229.55 C 774.53 221.97 769.71 211.74 761.24 204.73 C 754.06 198.59 747.83 191.41 742.47 183.65 C 732.30 181.27 722.04 179.29 711.88 176.84 C 694.08 172.51 677.22 164.39 662.64 153.31 C 651.37 144.75 641.95 132.99 638.66 119.01 C 629.83 123.80 620.62 128.00 610.85 130.48 C 585.35 137.34 557.42 134.87 533.61 123.41 C 512.78 113.55 495.22 97.00 484.13 76.80 C 471.24 53.69 467.15 25.88 472.56 0.00 Z" />
<path fill="#dc3545" opacity="1.00" d=" M 0.00 126.04 C 1.30 128.03 2.64 130.00 3.85 132.05 C 28.15 172.70 48.84 215.50 75.06 255.01 C 84.07 268.73 94.47 281.46 105.10 293.94 C 151.15 347.68 205.64 394.41 266.67 430.35 C 295.55 447.89 327.06 460.65 359.16 470.97 C 395.79 482.67 433.35 491.25 471.12 498.38 C 520.83 507.72 570.99 514.44 621.20 520.39 C 696.08 529.21 771.16 536.81 846.51 540.00 L 0.00 540.00 L 0.00 126.04 Z" />
</g>
<g id="#000000ff">
<path fill="#000000" opacity="1.00" d=" M 780.39 197.38 C 782.86 195.18 786.25 196.11 788.98 197.22 C 788.81 198.57 788.65 199.91 788.48 201.26 C 791.44 200.58 794.44 201.42 796.30 203.89 C 799.82 203.92 803.79 203.81 806.56 206.38 C 809.24 208.84 811.73 212.27 811.30 216.10 C 810.36 210.22 802.59 210.47 798.00 210.55 C 797.62 211.01 796.86 211.92 796.48 212.37 C 796.50 213.98 796.52 215.60 796.56 217.21 C 794.49 219.13 792.66 221.29 791.19 223.69 C 790.10 221.90 788.81 220.00 786.45 220.19 C 786.21 222.23 785.64 224.41 786.69 226.33 C 787.71 226.66 788.76 226.91 789.85 227.08 C 790.80 229.40 791.69 231.75 792.52 234.13 C 790.76 231.94 789.81 229.17 787.52 227.42 C 785.52 225.81 785.42 223.07 784.71 220.81 C 781.76 219.82 779.88 216.88 780.81 213.78 C 778.75 214.89 776.34 214.55 775.67 212.03 C 774.84 206.86 776.31 200.87 780.39 197.38 Z" />
<path fill="#000000" opacity="1.00" d=" M 801.40 220.34 C 802.91 220.46 802.15 222.89 801.16 223.32 C 799.77 223.10 800.35 220.73 801.40 220.34 Z" />
<path fill="#000000" opacity="1.00" d=" M 808.23 221.33 C 809.74 220.02 810.37 222.78 809.30 223.57 C 807.81 225.07 806.85 222.06 808.23 221.33 Z" />
</g>
<g id="#f8d2cfff">
<path fill="#f8d2cf" opacity="1.00" d=" M 796.48 212.37 C 796.86 211.92 797.62 211.01 798.00 210.55 C 802.59 210.47 810.36 210.22 811.30 216.10 C 810.50 221.45 810.05 226.84 809.51 232.22 C 809.45 235.09 806.97 236.80 805.03 238.50 C 803.16 238.29 801.29 238.10 799.44 237.93 C 799.69 238.58 800.20 239.89 800.45 240.55 C 802.05 245.31 803.70 250.07 804.68 255.01 C 801.60 253.70 800.00 250.54 797.55 248.43 C 797.44 246.54 797.37 244.66 797.30 242.77 C 796.64 242.70 795.33 242.57 794.68 242.50 C 794.19 242.08 793.22 241.23 792.74 240.81 C 793.17 238.97 793.52 237.07 793.25 235.18 C 793.07 234.92 792.70 234.39 792.52 234.13 C 791.69 231.75 790.80 229.40 789.85 227.08 C 788.76 226.91 787.71 226.66 786.69 226.33 C 785.64 224.41 786.21 222.23 786.45 220.19 C 788.81 220.00 790.10 221.90 791.19 223.69 C 792.66 221.29 794.49 219.13 796.56 217.21 C 796.52 215.60 796.50 213.98 796.48 212.37 M 800.19 214.29 C 797.58 215.47 801.43 217.54 802.58 215.87 C 803.26 214.54 801.13 213.86 800.19 214.29 M 809.47 216.26 C 809.95 216.78 809.95 216.78 809.47 216.26 M 801.40 220.34 C 800.35 220.73 799.77 223.10 801.16 223.32 C 802.15 222.89 802.91 220.46 801.40 220.34 M 808.23 221.33 C 806.85 222.06 807.81 225.07 809.30 223.57 C 810.37 222.78 809.74 220.02 808.23 221.33 M 803.26 230.31 C 803.21 230.96 803.11 232.24 803.06 232.89 C 804.32 232.90 805.59 232.92 806.86 232.94 C 806.87 232.23 806.89 230.82 806.90 230.11 C 805.68 230.18 804.46 230.24 803.26 230.31 Z" />
<path fill="#f8d2cf" opacity="1.00" d=" M 826.22 291.13 C 826.88 288.59 827.69 286.10 828.68 283.67 C 830.47 284.83 832.37 285.81 834.30 286.77 C 833.91 288.13 833.57 289.51 833.26 290.90 C 837.12 292.82 841.54 291.88 845.70 292.05 C 848.37 293.59 851.35 294.46 854.07 295.92 C 856.31 297.32 854.40 300.06 854.14 302.02 C 850.44 302.00 846.64 302.20 843.11 300.90 C 838.46 299.72 837.67 293.50 832.75 292.79 C 832.99 294.52 833.33 296.25 833.32 298.01 C 832.44 300.33 829.42 300.48 828.28 302.64 L 827.88 302.65 C 827.41 301.58 827.03 300.52 826.58 299.47 C 823.17 301.29 819.50 299.67 816.65 297.63 C 815.72 296.77 814.85 295.86 813.99 294.97 C 811.05 294.77 808.12 294.57 805.19 294.45 C 804.90 292.11 804.69 289.76 804.63 287.41 C 808.70 288.21 812.73 289.20 816.82 289.95 C 816.98 289.23 817.31 287.80 817.47 287.09 C 820.28 288.64 823.20 290.00 826.22 291.13 Z" />
<path fill="#f8d2cf" opacity="1.00" d=" M 763.37 311.37 C 818.55 311.39 873.74 311.44 928.93 311.34 C 928.55 316.86 928.24 322.41 929.08 327.90 C 929.52 347.94 929.14 368.00 929.27 388.04 C 929.15 396.69 929.50 405.36 929.12 414.00 C 929.08 417.69 925.60 420.65 922.00 420.49 C 872.00 420.55 822.00 420.48 772.00 420.52 C 769.64 420.47 766.96 420.62 765.15 418.83 C 762.95 417.25 763.05 414.35 762.96 411.94 C 762.86 386.12 763.13 360.29 762.83 334.47 C 762.75 332.23 762.75 329.99 762.92 327.76 C 763.50 322.31 763.25 316.84 763.37 311.37 Z" />
</g>
<g id="#293237ff">
<path fill="#293237" opacity="1.00" d=" M 800.19 214.29 C 801.13 213.86 803.26 214.54 802.58 215.87 C 801.43 217.54 797.58 215.47 800.19 214.29 Z" />
<path fill="#293237" opacity="1.00" d=" M 809.47 216.26 C 809.95 216.78 809.95 216.78 809.47 216.26 Z" />
<path fill="#293237" opacity="1.00" d=" M 790.80 240.19 C 791.28 240.35 792.25 240.65 792.74 240.81 C 793.22 241.23 794.19 242.08 794.68 242.50 C 795.33 242.57 796.64 242.70 797.30 242.77 C 797.37 244.66 797.44 246.54 797.55 248.43 C 800.00 250.54 801.60 253.70 804.68 255.01 C 803.70 250.07 802.05 245.31 800.45 240.55 C 802.35 241.92 804.22 243.33 806.06 244.80 C 807.48 253.18 808.13 261.68 808.34 270.17 C 805.31 263.94 802.23 257.65 797.52 252.49 C 795.33 249.52 792.18 247.41 790.09 244.39 C 790.27 243.34 790.62 241.24 790.80 240.19 Z" />
<path fill="#293237" opacity="1.00" d=" M 843.29 252.24 C 862.79 252.27 882.28 252.19 901.78 252.28 C 902.20 252.71 903.05 253.59 903.47 254.03 C 900.29 266.67 897.01 279.28 893.73 291.90 C 887.74 291.94 881.75 291.68 875.78 292.11 C 875.56 292.04 875.12 291.90 874.90 291.83 C 874.88 295.43 874.87 299.04 874.87 302.64 C 875.50 302.59 876.75 302.48 877.37 302.43 C 879.28 302.39 881.21 302.42 883.14 302.50 C 885.01 304.31 887.48 305.16 890.08 305.13 C 903.94 305.57 917.83 305.20 931.70 305.37 C 931.95 305.40 932.45 305.47 932.71 305.50 C 932.94 307.42 932.90 309.36 932.87 311.29 C 931.54 311.30 930.23 311.32 928.93 311.34 C 873.74 311.44 818.55 311.39 763.37 311.37 C 753.47 311.25 743.57 311.33 733.68 311.32 C 733.67 309.44 733.67 307.56 733.68 305.68 C 739.70 305.69 745.72 305.67 751.75 305.70 C 751.73 301.31 751.67 296.92 751.84 292.53 C 752.64 292.37 754.23 292.06 755.03 291.91 L 755.59 292.18 C 756.01 292.39 756.85 292.82 757.27 293.03 C 758.68 293.27 760.13 293.41 761.58 293.56 C 761.49 297.50 761.35 301.45 761.58 305.40 C 762.23 305.45 763.55 305.57 764.20 305.63 C 767.91 305.81 771.62 305.72 775.33 305.69 C 785.31 305.55 795.32 305.98 805.27 305.46 C 808.25 302.39 812.55 303.36 816.39 303.13 C 820.19 302.50 824.04 302.60 827.88 302.65 L 828.28 302.64 C 840.90 302.69 853.51 302.82 866.12 302.55 C 866.14 299.02 866.13 295.50 866.13 291.97 C 859.31 292.01 852.50 291.91 845.70 292.05 C 841.54 291.88 837.12 292.82 833.26 290.90 C 833.57 289.51 833.91 288.13 834.30 286.77 C 835.19 283.80 835.93 280.79 836.67 277.77 C 839.01 269.30 841.02 260.73 843.29 252.24 Z" />
<path fill="#293237" opacity="1.00" d=" M 698.53 327.83 C 719.99 327.64 741.46 327.80 762.92 327.76 C 762.75 329.99 762.75 332.23 762.83 334.47 C 752.95 334.09 743.07 334.41 733.19 334.29 C 722.93 334.34 712.66 334.33 702.40 334.31 C 701.43 334.31 699.49 334.31 698.53 334.31 C 698.52 332.14 698.52 329.98 698.53 327.83 Z" />
</g>
<g id="#dddbdbff">
<path fill="#dddbdb" opacity="1.00" d=" M 803.26 230.31 C 804.46 230.24 805.68 230.18 806.90 230.11 C 806.89 230.82 806.87 232.23 806.86 232.94 C 805.59 232.92 804.32 232.90 803.06 232.89 C 803.11 232.24 803.21 230.96 803.26 230.31 Z" />
<path fill="#dddbdb" opacity="1.00" d=" M 845.70 292.05 C 852.50 291.91 859.31 292.01 866.13 291.97 C 866.13 295.50 866.14 299.02 866.12 302.55 C 853.51 302.82 840.90 302.69 828.28 302.64 C 829.42 300.48 832.44 300.33 833.32 298.01 C 833.33 296.25 832.99 294.52 832.75 292.79 C 837.67 293.50 838.46 299.72 843.11 300.90 C 846.64 302.20 850.44 302.00 854.14 302.02 C 854.40 300.06 856.31 297.32 854.07 295.92 C 851.35 294.46 848.37 293.59 845.70 292.05 Z" />
<path fill="#dddbdb" opacity="1.00" d=" M 816.65 297.63 C 819.50 299.67 823.17 301.29 826.58 299.47 C 827.03 300.52 827.41 301.58 827.88 302.65 C 824.04 302.60 820.19 302.50 816.39 303.13 C 816.45 301.29 816.54 299.46 816.65 297.63 Z" />
<path fill="#dddbdb" opacity="1.00" d=" M 899.03 301.30 C 909.47 300.72 919.94 300.51 930.37 301.59 C 930.80 302.84 931.25 304.10 931.70 305.37 C 917.83 305.20 903.94 305.57 890.08 305.13 C 887.48 305.16 885.01 304.31 883.14 302.50 C 881.21 302.42 879.28 302.39 877.37 302.43 C 877.84 302.14 878.77 301.57 879.23 301.28 C 885.79 300.58 892.43 301.32 899.03 301.30 Z" />
<path fill="#dddbdb" opacity="1.00" d=" M 919.05 441.13 C 925.21 440.27 930.51 435.52 932.36 429.61 C 934.56 429.98 936.79 430.22 939.04 430.17 C 956.03 429.96 973.01 430.27 990.00 430.02 L 990.00 540.00 L 846.51 540.00 C 771.16 536.81 696.08 529.21 621.20 520.39 C 570.99 514.44 520.83 507.72 471.12 498.38 C 433.35 491.25 395.79 482.67 359.16 470.97 C 327.06 460.65 295.55 447.89 266.67 430.35 C 273.45 429.92 280.25 430.17 287.04 430.11 C 425.76 430.07 564.48 430.18 703.20 430.05 C 705.47 436.20 711.27 441.02 717.94 441.25 C 727.43 441.32 736.93 441.23 746.43 441.26 C 750.63 441.30 754.83 441.02 759.04 440.99 C 807.68 441.00 856.31 440.98 904.95 441.00 C 909.64 440.97 914.35 441.53 919.05 441.13 Z" />
</g>
<g id="#c5241fff">
<path fill="#c5241f" opacity="1.00" d=" M 780.04 245.14 C 783.11 244.51 786.06 243.43 789.07 242.51 C 789.32 242.98 789.83 243.92 790.09 244.39 C 792.18 247.41 795.33 249.52 797.52 252.49 C 802.23 257.65 805.31 263.94 808.34 270.17 C 808.13 261.68 807.48 253.18 806.06 244.80 C 809.23 247.37 813.88 247.35 816.76 250.28 C 818.77 255.60 820.56 261.37 818.88 267.05 C 819.09 270.27 819.47 273.47 819.56 276.70 C 820.57 277.56 821.60 278.42 822.65 279.26 C 825.18 279.05 827.27 280.60 829.23 281.99 C 829.09 282.41 828.81 283.25 828.68 283.67 C 827.69 286.10 826.88 288.59 826.22 291.13 C 823.20 290.00 820.28 288.64 817.47 287.09 C 817.31 287.80 816.98 289.23 816.82 289.95 C 812.73 289.20 808.70 288.21 804.63 287.41 C 804.69 289.76 804.90 292.11 805.19 294.45 C 808.12 294.57 811.05 294.77 813.99 294.97 C 814.85 295.86 815.72 296.77 816.65 297.63 C 816.54 299.46 816.45 301.29 816.39 303.13 C 812.55 303.36 808.25 302.39 805.27 305.46 C 795.32 305.98 785.31 305.55 775.33 305.69 C 777.75 299.88 782.92 296.08 787.67 292.30 C 784.72 287.78 784.44 282.31 783.81 277.12 C 782.91 271.18 781.41 265.36 780.27 259.47 C 779.56 255.16 775.54 251.59 776.77 247.01 C 777.54 245.95 778.74 245.33 780.04 245.14 Z" />
</g>
<g id="#c88663ff">
<path fill="#c88663" opacity="1.00" d=" M 758.39 292.10 C 758.98 289.35 757.93 285.62 760.57 283.77 C 760.41 286.54 760.01 289.30 759.44 292.02 C 759.18 292.04 758.66 292.08 758.39 292.10 Z" />
<path fill="#c88663" opacity="1.00" d=" M 929.08 327.90 C 930.41 327.86 931.75 327.83 933.10 327.81 C 933.11 357.87 933.10 387.94 933.10 418.01 C 933.11 421.88 933.36 425.82 932.36 429.61 C 930.51 435.52 925.21 440.27 919.05 441.13 C 914.35 441.53 909.64 440.97 904.95 441.00 C 856.31 440.98 807.68 441.00 759.04 440.99 C 754.83 441.02 750.63 441.30 746.43 441.26 C 741.92 439.20 737.12 436.63 735.03 431.86 C 731.86 426.40 732.87 419.94 732.80 413.93 C 732.82 394.30 732.76 374.67 732.81 355.04 C 732.88 348.12 732.52 341.19 733.19 334.29 C 743.07 334.41 752.95 334.09 762.83 334.47 C 763.13 360.29 762.86 386.12 762.96 411.94 C 763.05 414.35 762.95 417.25 765.15 418.83 C 766.96 420.62 769.64 420.47 772.00 420.52 C 822.00 420.48 872.00 420.55 922.00 420.49 C 925.60 420.65 929.08 417.69 929.12 414.00 C 929.50 405.36 929.15 396.69 929.27 388.04 C 929.14 368.00 929.52 347.94 929.08 327.90 Z" />
</g>
<g id="#a4745dff">
<path fill="#a4745d" opacity="1.00" d=" M 761.49 291.83 C 762.79 288.96 763.99 286.02 765.84 283.44 C 765.29 286.15 764.27 288.73 763.15 291.25 C 765.22 295.76 764.00 300.85 764.20 305.63 C 763.55 305.57 762.23 305.45 761.58 305.40 C 761.35 301.45 761.49 297.50 761.58 293.56 C 760.13 293.41 758.68 293.27 757.27 293.03 C 756.85 292.82 756.01 292.39 755.59 292.18 C 756.29 292.16 757.69 292.12 758.39 292.10 C 758.66 292.08 759.18 292.04 759.44 292.02 C 759.95 291.98 760.98 291.88 761.49 291.83 Z" />
<path fill="#a4745d" opacity="1.00" d=" M 702.40 334.31 C 712.66 334.33 722.93 334.34 733.19 334.29 C 732.52 341.19 732.88 348.12 732.81 355.04 C 732.76 374.67 732.82 394.30 732.80 413.93 C 732.87 419.94 731.86 426.40 735.03 431.86 C 737.12 436.63 741.92 439.20 746.43 441.26 C 736.93 441.23 727.43 441.32 717.94 441.25 C 711.27 441.02 705.47 436.20 703.20 430.05 C 702.04 425.13 702.45 420.05 702.42 415.05 C 702.40 388.14 702.44 361.23 702.40 334.31 Z" />
</g>
</svg>
